<svg width="1332" height="265" viewBox="0 0 1332 265" fill="none" xmlns="http://www.w3.org/2000/svg">
<path fill-rule="evenodd" clip-rule="evenodd" d="M1312.55 55.7781C1308.11 53.7746 1302.97 52.7729 1297.14 52.7729C1266.56 52.7729 1249.53 75.3338 1246.05 120.456H1239.38V117.842C1239.47 116.1 1239.51 114.619 1239.51 113.4C1239.6 112.18 1239.73 110.395 1239.91 108.043C1240.17 105.604 1240.38 103.382 1240.56 101.379C1240.82 99.3755 1241.17 96.98 1241.6 94.1926C1242.13 91.4051 1242.69 88.8355 1243.3 86.4836C1243.91 84.1316 1244.65 81.562 1245.52 78.7745C1246.48 75.9871 1247.48 73.4174 1248.53 71.0655C1249.66 68.7136 1250.97 66.3181 1252.45 63.8791C1253.51 62.1282 1254.64 60.5119 1255.84 59.0303C1256.31 58.4481 1256.79 57.8867 1257.28 57.346H1175.88V63.7485C1181.8 63.7485 1186.86 66.0133 1191.04 70.5429C1195.22 75.0725 1197.31 81.1264 1197.31 88.7048V175.856C1197.31 183.434 1195.22 189.488 1191.04 194.018C1186.86 198.548 1181.8 200.812 1175.88 200.812V207.215H1278.71V200.812C1272.79 200.812 1267.74 198.548 1263.56 194.018C1259.37 189.488 1257.28 183.434 1257.28 175.856V162.79C1257.28 142.058 1257.85 125.508 1258.98 113.139C1260.2 100.769 1261.46 92.7118 1262.77 88.9661C1264.08 85.1334 1265.91 81.4749 1268.26 77.9906L1273.62 80.8651C1271.87 84.8721 1271.22 89.0532 1271.66 93.4086C1272.18 97.6769 1273.35 101.597 1275.18 105.168C1277.01 108.652 1279.93 111.571 1283.94 113.922C1288.03 116.187 1292.69 117.32 1297.92 117.32C1301.93 117.32 1305.76 116.71 1309.42 115.49C1313.08 114.184 1316.47 112.311 1319.61 109.872C1322.83 107.346 1325.36 103.905 1327.19 99.5497C1329.1 95.1072 1330.06 90.055 1330.06 84.393C1330.06 80.7344 1329.45 77.163 1328.23 73.6787C1327.1 70.1073 1325.31 66.7101 1322.88 63.4871C1320.44 60.2641 1317 57.6945 1312.55 55.7781ZM1313.23 54.2369C1308.54 52.1218 1303.16 51.0886 1297.14 51.0886C1281.37 51.0886 1268.95 56.9384 1260.09 68.6788C1251.5 80.0604 1246.36 96.829 1244.49 118.771H1241.07V117.885C1241.15 116.171 1241.2 114.695 1241.2 113.461C1241.28 112.25 1241.41 110.494 1241.58 108.194C1241.84 105.772 1242.06 103.561 1242.23 101.561C1242.49 99.5892 1242.83 97.2287 1243.26 94.4776C1243.78 91.7316 1244.34 89.2084 1244.93 86.9062C1245.53 84.5925 1246.26 82.0577 1247.12 79.3008C1248.06 76.5704 1249.04 74.0615 1250.06 71.7722C1251.16 69.4812 1252.44 67.1416 1253.89 64.7532C1255.32 62.3973 1256.87 60.3079 1258.53 58.479L1261.09 55.6618H1174.2V65.4327H1175.88C1181.31 65.4327 1185.92 67.4852 1189.8 71.6853C1193.63 75.8362 1195.63 81.4479 1195.63 88.7048V175.856C1195.63 183.113 1193.63 188.725 1189.8 192.876C1185.92 197.076 1181.31 199.128 1175.88 199.128H1174.2V208.899H1280.4V199.128H1278.71C1273.28 199.128 1268.67 197.076 1264.79 192.876C1260.96 188.725 1258.97 183.113 1258.97 175.856V162.79C1258.97 142.081 1259.53 125.588 1260.66 113.292C1261.88 100.888 1263.13 93.0421 1264.36 89.5209L1264.37 89.5096C1265.46 86.2853 1266.95 83.1844 1268.82 80.2057L1271.49 81.6363C1270.07 85.4684 1269.57 89.4549 1269.98 93.5762L1269.98 93.5948L1269.98 93.6133C1270.53 98.0638 1271.76 102.176 1273.68 105.936L1273.69 105.944L1273.69 105.951C1275.69 109.761 1278.86 112.893 1283.09 115.375L1283.1 115.386L1283.12 115.396C1287.49 117.815 1292.44 119.004 1297.92 119.004C1302.1 119.004 1306.11 118.367 1309.95 117.088L1309.97 117.083L1309.98 117.077C1313.81 115.708 1317.37 113.748 1320.64 111.201L1320.65 111.198C1324.13 108.47 1326.81 104.785 1328.74 100.21C1330.76 95.5258 1331.75 90.243 1331.75 84.393C1331.75 80.5524 1331.11 76.8018 1329.83 73.1485C1328.64 69.3882 1326.76 65.8283 1324.22 62.4708C1321.57 58.9768 1317.88 56.2454 1313.23 54.2369Z" fill="black"/>
<path fill-rule="evenodd" clip-rule="evenodd" d="M983.678 172.982C975.751 178.121 965.778 180.691 953.757 180.691C941.039 180.691 931.152 176.901 924.097 169.323C917.393 161.949 913.35 151.23 911.966 137.166C911.911 136.61 911.861 136.048 911.814 135.482H1009.94C1009.94 134.917 1009.94 134.356 1009.93 133.797C1009.82 121.257 1008.43 110.233 1005.76 100.726C1002.97 90.7954 998.53 82.2153 992.432 74.9854C986.422 67.7554 978.365 62.3112 968.26 58.6527C958.243 54.9071 946.265 53.0342 932.328 53.0342C915.081 53.0342 900.316 56.4314 888.034 63.2258C875.752 70.0202 866.605 79.3408 860.595 91.1874C854.585 102.947 851.579 116.666 851.579 132.346C851.579 143.844 853.234 154.384 856.545 163.966C859.942 173.548 864.863 181.91 871.309 189.053C877.842 196.109 886.205 201.64 896.396 205.647C906.588 209.567 918.217 211.527 931.283 211.527C939.036 211.527 946.265 210.743 952.973 209.175C959.68 207.694 965.429 205.778 970.22 203.426C975.011 200.987 979.41 198.069 983.417 194.671C987.424 191.187 990.734 187.79 993.347 184.48C995.96 181.083 998.269 177.38 1000.27 173.373C1002.28 169.367 1003.8 165.882 1004.85 162.921C1005.89 159.872 1006.81 156.78 1007.59 153.645C1007.59 153.644 1007.59 153.644 1007.59 153.644L1001.97 152.076C997.79 160.786 991.692 167.755 983.678 172.982ZM982.762 171.568C990.513 166.512 996.404 159.781 1000.45 151.347L1001.06 150.074L1009.62 152.462L1009.22 154.052C1008.43 157.234 1007.5 160.373 1006.44 163.467L1006.44 163.474L1006.43 163.481C1005.36 166.53 1003.8 170.081 1001.78 174.127C999.729 178.226 997.364 182.02 994.682 185.507L994.676 185.515L994.669 185.523C991.977 188.934 988.589 192.406 984.522 195.942L984.514 195.949L984.506 195.956C980.397 199.44 975.889 202.43 970.984 204.927L970.973 204.932L970.962 204.938C966.025 207.361 960.145 209.315 953.347 210.817C946.502 212.416 939.145 213.211 931.283 213.211C918.05 213.211 906.21 211.226 895.792 207.219L895.78 207.214C885.386 203.128 876.801 197.463 870.073 190.197L870.066 190.189L870.059 190.181C863.456 182.865 858.424 174.307 854.957 164.529L854.953 164.516C851.574 154.735 849.895 144.006 849.895 132.346C849.895 116.451 852.942 102.462 859.093 90.4253C865.265 78.2606 874.659 68.6999 887.219 61.752C899.801 54.7914 914.86 51.35 932.328 51.35C946.406 51.35 958.591 53.2403 968.843 57.0726C979.181 60.817 987.497 66.4161 993.722 73.9015C999.987 81.3312 1004.54 90.1306 1007.38 100.271C1010.22 110.384 1011.63 122.129 1011.63 135.482V137.166H913.659C915.035 150.926 918.988 161.196 925.336 168.183C932.002 175.338 941.396 179.006 953.757 179.006C965.54 179.006 975.173 176.488 982.762 171.568ZM925.403 65.3164C927.407 64.2711 929.628 63.7485 932.067 63.7485C935.203 63.7485 937.903 64.576 940.168 66.2311C942.433 67.799 944.218 70.0202 945.525 72.8948C946.832 75.7693 947.92 79.1665 948.792 83.0864C949.663 86.9191 950.185 91.1003 950.359 95.6299C950.621 100.159 950.795 104.907 950.882 109.872C951.056 114.837 951.056 119.802 950.882 124.767H911.553V114.706C911.64 112.006 911.771 108.609 911.945 104.515C912.119 100.334 912.381 96.8494 912.729 94.062C913.165 91.2745 913.687 88.1822 914.297 84.785C914.907 81.3007 915.734 78.4261 916.779 76.1613C917.825 73.8965 919.001 71.7624 920.307 69.7589C921.701 67.7554 923.4 66.2746 925.403 65.3164ZM921.704 70.7004C920.45 72.6264 919.318 74.6815 918.309 76.8671C917.344 78.9573 916.55 81.6799 915.956 85.0753L915.955 85.0825C915.349 88.4592 914.83 91.53 914.397 94.2958C914.058 97.0168 913.8 100.443 913.628 104.585L913.628 104.586C913.454 108.664 913.324 112.046 913.237 114.734V123.083H949.25C949.37 118.699 949.353 114.315 949.199 109.931L949.198 109.916L949.198 109.902C949.111 104.957 948.938 100.232 948.678 95.7269L948.677 95.7108L948.676 95.6946C948.506 91.2535 947.994 87.177 947.149 83.4597L947.147 83.4518C946.295 79.6168 945.239 76.3358 943.992 73.5917C942.792 70.9529 941.189 68.9865 939.209 67.6158L939.192 67.6036L939.174 67.5909C937.232 66.1713 934.89 65.4328 932.067 65.4328C929.877 65.4328 927.926 65.8997 926.182 66.8097L926.156 66.8232L926.13 66.8359C924.422 67.6528 922.945 68.9228 921.704 70.7004Z" fill="black"/>
<path fill-rule="evenodd" clip-rule="evenodd" d="M1151.78 172.982C1143.86 178.121 1133.88 180.691 1121.86 180.691C1109.14 180.691 1099.26 176.901 1092.2 169.323C1085.5 161.949 1081.45 151.23 1080.07 137.166C1080.02 136.61 1079.97 136.048 1079.92 135.482H1178.05C1178.05 134.917 1178.04 134.356 1178.04 133.797C1177.92 121.257 1176.53 110.233 1173.86 100.726C1171.08 90.7954 1166.63 82.2153 1160.54 74.9854C1154.53 67.7554 1146.47 62.3112 1136.36 58.6527C1126.35 54.9071 1114.37 53.0342 1100.43 53.0342C1083.19 53.0342 1068.42 56.4314 1056.14 63.2258C1043.86 70.0202 1034.71 79.3408 1028.7 91.1874C1022.69 102.947 1019.68 116.666 1019.68 132.346C1019.68 143.844 1021.34 154.384 1024.65 163.966C1028.05 173.548 1032.97 181.91 1039.41 189.053C1045.95 196.109 1054.31 201.64 1064.5 205.647C1074.69 209.567 1086.32 211.527 1099.39 211.527C1107.14 211.527 1114.37 210.743 1121.08 209.175C1127.78 207.694 1133.53 205.778 1138.32 203.426C1143.12 200.987 1147.51 198.069 1151.52 194.671C1155.53 191.187 1158.84 187.79 1161.45 184.48C1164.07 181.083 1166.37 177.38 1168.38 173.373C1170.38 169.367 1171.9 165.882 1172.95 162.921C1174 159.872 1174.91 156.78 1175.69 153.645C1175.69 153.644 1175.69 153.644 1175.69 153.644L1170.08 152.076C1165.89 160.786 1159.8 167.755 1151.78 172.982ZM1150.87 171.568C1158.62 166.512 1164.51 159.781 1168.56 151.347L1169.17 150.074L1177.73 152.462L1177.33 154.052C1176.53 157.234 1175.6 160.373 1174.54 163.467L1174.54 163.474L1174.54 163.481C1173.46 166.53 1171.91 170.081 1169.88 174.127C1167.83 178.226 1165.47 182.02 1162.79 185.507L1162.78 185.515L1162.77 185.523C1160.08 188.934 1156.69 192.406 1152.63 195.942L1152.62 195.949L1152.61 195.956C1148.5 199.44 1143.99 202.43 1139.09 204.927L1139.08 204.932L1139.07 204.938C1134.13 207.361 1128.25 209.315 1121.45 210.817C1114.61 212.416 1107.25 213.211 1099.39 213.211C1086.15 213.211 1074.31 211.226 1063.9 207.219L1063.88 207.214C1053.49 203.128 1044.91 197.463 1038.18 190.197L1038.17 190.189L1038.16 190.181C1031.56 182.865 1026.53 174.307 1023.06 164.529L1023.06 164.516C1019.68 154.735 1018 144.006 1018 132.346C1018 116.451 1021.05 102.462 1027.2 90.4253C1033.37 78.2606 1042.76 68.6999 1055.32 61.752C1067.91 54.7914 1082.97 51.35 1100.43 51.35C1114.51 51.35 1126.7 53.2403 1136.95 57.0726C1147.29 60.817 1155.6 66.4161 1161.83 73.9015C1168.09 81.3312 1172.64 90.1306 1175.49 100.271C1178.33 110.384 1179.73 122.129 1179.73 135.482V137.166H1081.76C1083.14 150.926 1087.09 161.196 1093.44 168.183C1100.11 175.338 1109.5 179.006 1121.86 179.006C1133.65 179.006 1143.28 176.488 1150.87 171.568ZM1093.51 65.3164C1095.51 64.2711 1097.73 63.7485 1100.17 63.7485C1103.31 63.7485 1106.01 64.576 1108.27 66.2311C1110.54 67.799 1112.32 70.0202 1113.63 72.8948C1114.94 75.7693 1116.03 79.1665 1116.9 83.0864C1117.77 86.9191 1118.29 91.1003 1118.46 95.6299C1118.73 100.159 1118.9 104.907 1118.99 109.872C1119.16 114.837 1119.16 119.802 1118.99 124.767H1079.66V114.706C1079.74 112.006 1079.88 108.609 1080.05 104.515C1080.22 100.334 1080.49 96.8494 1080.83 94.062C1081.27 91.2745 1081.79 88.1822 1082.4 84.785C1083.01 81.3007 1083.84 78.4261 1084.88 76.1613C1085.93 73.8965 1087.11 71.7624 1088.41 69.7589C1089.81 67.7554 1091.5 66.2746 1093.51 65.3164ZM1089.81 70.7004C1088.55 72.6264 1087.42 74.6815 1086.41 76.8671C1085.45 78.9573 1084.66 81.6799 1084.06 85.0753L1084.06 85.0825C1083.45 88.4592 1082.93 91.53 1082.5 94.2958C1082.16 97.0168 1081.91 100.443 1081.73 104.585L1081.73 104.586C1081.56 108.664 1081.43 112.046 1081.34 114.734V123.083H1117.35C1117.47 118.699 1117.46 114.315 1117.3 109.931L1117.3 109.916L1117.3 109.902C1117.22 104.957 1117.04 100.232 1116.78 95.7269L1116.78 95.7108L1116.78 95.6946C1116.61 91.2535 1116.1 87.177 1115.25 83.4597L1115.25 83.4518C1114.4 79.6168 1113.34 76.3358 1112.1 73.5917C1110.9 70.9529 1109.29 68.9865 1107.31 67.6158L1107.3 67.6036L1107.28 67.5909C1105.34 66.1713 1102.99 65.4328 1100.17 65.4328C1097.98 65.4328 1096.03 65.8997 1094.29 66.8097L1094.26 66.8232L1094.23 66.8359C1092.53 67.6528 1091.05 68.9228 1089.81 70.7004Z" fill="black"/>
<path fill-rule="evenodd" clip-rule="evenodd" d="M648.676 207.215V208.899H752.654V199.128H750.97C745.73 199.128 741.557 197.137 738.31 193.103C735.134 189.051 733.447 183.367 733.447 175.856V172.459C733.447 157.907 734.53 144.416 736.689 131.981L736.689 131.979C738.856 119.413 741.528 109.496 744.678 102.175C747.959 94.6641 751.163 88.8752 754.274 84.7546C757.543 80.4541 760.18 78.6148 762.152 78.3556C764.492 78.0844 766.224 78.4569 767.504 79.2779C768.785 80.0987 769.831 81.5064 770.531 83.7242L770.535 83.737L770.539 83.7497C772.097 88.4229 772.936 97.3983 772.936 110.917V175.856C772.936 183.362 771.207 189.042 767.95 193.093C764.701 197.134 760.526 199.128 755.282 199.128H753.598V208.899H857.576V199.128H855.891C850.459 199.128 845.849 197.076 841.972 192.876C838.141 188.725 836.147 183.113 836.147 175.856V113.269C836.147 90.5799 832.812 74.3978 825.741 65.2093C818.661 55.8088 806.303 51.35 789.254 51.35C782.431 51.35 775.908 52.5626 769.699 54.9919C763.56 57.3403 757.644 61.0706 751.948 66.1422C746.171 71.1983 741.044 78.1828 736.534 87.025L736.531 87.0309C732.264 95.4802 728.878 105.37 726.357 116.681H723.364C723.861 111.216 725.901 102.705 729.58 91.0408L729.583 91.031L729.586 91.0211C732.156 82.515 733.447 74.1628 733.447 65.9697V55.6618H648.676V65.4328H650.361C657.171 65.4328 661.994 67.4037 665.154 71.0848C668.357 74.815 670.105 80.5882 670.105 88.7048V175.856C670.105 183.113 668.111 188.725 664.28 192.876C660.975 196.456 657.137 198.476 652.712 198.994C653.702 199.456 654.725 199.83 655.783 200.116C659.43 199.13 662.675 197.097 665.517 194.018C669.699 189.488 671.789 183.434 671.789 175.856V88.7048C671.789 72.0673 664.646 63.7485 650.361 63.7485V57.3461H731.763V65.9697C731.763 73.9836 730.5 82.1718 727.974 90.5341C724.267 102.283 722.167 110.999 721.674 116.681C721.622 117.275 721.588 117.837 721.571 118.365H727.712C730.238 106.605 733.679 96.4139 738.035 87.7902C742.477 79.0794 747.486 72.285 753.061 67.407C758.636 62.4419 764.385 58.8269 770.308 56.5621C776.318 54.2102 782.634 53.0342 789.254 53.0342C806.066 53.0342 817.782 57.4332 824.402 66.2311C831.109 74.9418 834.463 90.6212 834.463 113.269V175.856C834.463 183.434 836.553 189.488 840.734 194.018C844.916 198.548 849.968 200.812 855.891 200.812V207.215H755.282V200.812C761.031 200.812 765.691 198.591 769.263 194.149C772.834 189.706 774.62 183.609 774.62 175.856V110.917C774.62 97.4156 773.792 88.1822 772.137 83.217C770.569 78.2519 767.172 76.0742 761.946 76.684C759.245 77.0324 756.24 79.3843 752.93 83.7397C749.707 88.008 746.44 93.9313 743.13 101.51C739.907 109.001 737.207 119.062 735.029 131.692C732.852 144.236 731.763 157.825 731.763 172.459V175.856C731.763 183.609 733.505 189.706 736.989 194.149C740.561 198.591 745.221 200.812 750.97 200.812V207.215H648.676Z" fill="black"/>
<path fill-rule="evenodd" clip-rule="evenodd" d="M635.431 47.1953L635.425 47.1996C628.623 52.255 620.013 54.7185 609.725 54.7185C599.436 54.7185 590.827 52.255 584.025 47.1996L584.015 47.192L584.005 47.1842C577.27 42.0178 573.807 35.4003 573.807 27.4246C573.807 19.6016 577.332 13.036 584.133 7.79765C590.934 2.55913 599.507 0 609.725 0C619.941 0 628.513 2.55808 635.313 7.79443C642.198 13.0285 645.773 19.5939 645.773 27.4246C645.773 35.4098 642.258 42.0282 635.436 47.1909L635.431 47.1953ZM634.289 9.13197C627.843 4.16683 619.655 1.68427 609.725 1.68427C599.795 1.68427 591.607 4.16683 585.161 9.13197C578.715 14.0971 575.492 20.1946 575.492 27.4246C575.492 34.8287 578.671 40.9698 585.03 45.8479C591.476 50.6388 599.708 53.0342 609.725 53.0342C619.742 53.0342 627.974 50.6388 634.42 45.8479C640.866 40.9698 644.089 34.8287 644.089 27.4246C644.089 20.1946 640.822 14.0971 634.289 9.13197ZM556.691 55.6618H558.375C564.525 55.6618 571.434 56.4631 579.09 58.0468C586.671 59.5281 593.046 60.8814 598.21 62.1065C603.113 63.1847 609.23 63.3679 616.605 62.596L616.607 62.5958C623.961 61.835 631.434 59.592 639.031 55.8362L641.461 54.6345V175.856C641.461 183.113 643.455 188.725 647.286 192.876C650.591 196.456 654.429 198.476 658.855 198.994C657.865 199.456 656.841 199.83 655.783 200.116C652.136 199.13 648.891 197.097 646.049 194.018C641.868 189.488 639.777 183.434 639.777 175.856V57.3461C639.215 57.6238 638.654 57.8936 638.093 58.1554C630.914 61.5054 623.81 63.544 616.781 64.2711C609.289 65.0551 602.974 64.8809 597.835 63.7485C592.695 62.529 586.337 61.1788 578.758 59.698C571.879 58.2747 565.646 57.4975 560.059 57.3661C559.491 57.3527 558.93 57.3461 558.375 57.3461V63.7485C564.298 63.7485 569.351 66.0133 573.532 70.5429C577.713 75.0725 579.803 81.1265 579.803 88.7048V175.856C579.803 183.434 577.713 189.488 573.532 194.018C569.765 198.099 565.291 200.341 560.11 200.746C559.878 200.191 559.631 199.644 559.368 199.105C564.371 198.868 568.656 196.817 572.294 192.876C576.126 188.725 578.119 183.113 578.119 175.856V88.7048C578.119 81.448 576.126 75.8362 572.294 71.6853C568.417 67.4852 563.807 65.4327 558.375 65.4327H556.691V55.6618ZM562.314 208.899H662.89V207.215H562.037C562.142 207.77 562.234 208.331 562.314 208.899Z" fill="black"/>
<path fill-rule="evenodd" clip-rule="evenodd" d="M560.11 200.746C552.018 181.365 524.872 171.675 478.671 171.675C458.027 171.675 444.046 171.326 436.729 170.63C429.412 169.933 425.754 168.016 425.754 164.88C425.754 163.487 426.668 162.354 428.497 161.483C430.327 160.612 433.637 160.046 438.428 159.785C443.306 159.436 447.705 159.218 451.625 159.131C455.632 159.044 461.99 159.001 470.701 159.001C496.572 159.001 516.215 154.253 529.629 144.759C543.131 135.264 549.882 122.633 549.882 106.867C549.882 101.553 549.055 96.6752 547.399 92.2327C545.831 87.7031 543.784 84.001 541.258 81.1265C538.819 78.2519 535.988 75.7693 532.765 73.6787C529.542 71.5011 526.494 69.9331 523.619 68.9749C520.745 67.9296 517.913 67.1892 515.126 66.7537L514.865 60.6126C515.431 60.5949 515.992 60.5736 516.548 60.5487C529.667 59.9611 539.821 57.3692 547.007 52.7729C554.586 47.8949 558.375 40.2294 558.375 29.7765C558.375 25.5953 557.417 21.8932 555.5 18.6703C553.671 15.4473 551.276 12.9647 548.314 11.2226C545.44 9.4804 542.478 8.17379 539.429 7.30271C536.38 6.43163 533.419 5.99609 530.544 5.99609C521.659 5.99609 514.429 7.82536 508.854 11.4839C503.367 15.0553 500.623 20.1946 500.623 26.9019C500.623 33.6092 503.105 38.6615 508.07 42.0587C513.123 45.3688 520.004 46.806 528.715 46.3705L529.237 51.7276C526.45 52.6858 522.225 53.252 516.563 53.4262C510.988 53.6004 503.279 53.5569 493.436 53.2956C483.593 53.0342 476.015 52.9471 470.701 53.0342C457.374 53.0342 445.571 54.4715 435.292 57.3461C425.013 60.1335 416.738 64.0098 410.466 68.9749C404.194 73.9401 399.447 79.6456 396.224 86.0916C393.088 92.4505 391.52 99.3755 391.52 106.867C391.52 117.581 394.874 126.466 401.581 133.522C408.376 140.49 418.567 144.889 432.156 146.719L431.895 152.86C424.926 153.208 418.829 154.297 413.602 156.126C408.463 157.955 404.499 160.264 401.712 163.051C398.924 165.752 396.877 168.583 395.571 171.544C394.264 174.419 393.611 177.38 393.611 180.429C393.611 195.325 405.196 204.253 428.367 207.215V213.095C420.353 213.704 413.471 214.837 407.722 216.492C401.973 218.234 397.705 220.237 394.917 222.502C392.13 224.854 390.127 227.119 388.907 229.297C387.775 231.561 387.208 233.913 387.208 236.352C387.208 243.844 394.264 250.115 408.376 255.168C422.487 260.307 440.562 262.877 462.6 262.877C482.199 262.877 499.447 261.091 514.342 257.519C529.237 253.948 540.997 248.46 549.621 241.056C558.331 233.652 562.687 224.767 562.687 214.401C562.687 211.896 562.47 209.5 562.037 207.215H563.75C564.165 209.512 564.371 211.909 564.371 214.401C564.371 225.315 559.756 234.651 550.713 242.338C541.829 249.964 529.802 255.545 514.735 259.157C499.681 262.767 482.297 264.561 462.6 264.561C440.449 264.561 422.161 261.981 407.801 256.751C400.651 254.19 395.136 251.271 391.381 247.933C387.594 244.567 385.524 240.699 385.524 236.352C385.524 233.642 386.156 231.033 387.401 228.543L387.418 228.508L387.438 228.474C388.79 226.058 390.954 223.643 393.831 221.215L393.843 221.205L393.855 221.195C396.889 218.73 401.397 216.649 407.234 214.88L407.245 214.876L407.256 214.873C412.765 213.287 419.246 212.182 426.683 211.541V208.687C415.674 207.128 407.144 204.157 401.272 199.631C395.056 194.841 391.927 188.388 391.927 180.429C391.927 177.134 392.634 173.939 394.034 170.856C395.442 167.667 397.625 164.667 400.531 161.85C403.549 158.836 407.753 156.42 413.037 154.539L413.046 154.536C418.064 152.78 423.814 151.698 430.277 151.267L430.408 148.17C417.338 146.191 407.256 141.755 400.375 134.698L400.368 134.69L400.36 134.682C393.324 127.281 389.836 117.966 389.836 106.867C389.836 99.1322 391.457 91.9503 394.714 85.3467L394.718 85.3384C398.062 78.6486 402.977 72.7556 409.421 67.6544C415.919 62.5101 424.418 58.5504 434.845 55.7221C445.298 52.7998 457.251 51.351 470.687 51.35C476.037 51.2626 483.639 51.3506 493.481 51.6119C503.312 51.8729 510.984 51.9155 516.511 51.7428C521.274 51.5962 524.888 51.1703 527.427 50.5117L527.193 48.1128C519.006 48.3137 512.273 46.8254 507.147 43.4675L507.133 43.4582L507.119 43.4487C501.637 39.6976 498.938 34.0905 498.938 26.9019C498.938 19.6434 501.955 13.9661 507.931 10.0749C513.858 6.18598 521.438 4.31183 530.544 4.31183C533.59 4.31183 536.708 4.77356 539.892 5.68325C543.09 6.5969 546.185 7.964 549.177 9.77622C552.404 11.6767 554.996 14.3753 556.957 17.8239C559.039 21.333 560.059 25.3342 560.059 29.7765C560.059 40.6952 556.063 48.9473 547.919 54.1892L547.915 54.1918C540.381 59.0102 529.895 61.6373 516.619 62.2315L516.751 65.3257C519.202 65.7903 521.677 66.4776 524.173 67.3844C527.217 68.4018 530.392 70.044 533.696 72.2751C537.044 74.4486 539.992 77.0326 542.533 80.0258C545.227 83.0943 547.365 86.9912 548.985 91.6631C550.713 96.3101 551.566 101.384 551.566 106.867C551.566 123.21 544.525 136.341 530.603 146.133C516.782 155.915 496.735 160.685 470.701 160.685C461.992 160.685 455.649 160.729 451.662 160.815C447.775 160.902 443.405 161.118 438.548 161.465L438.534 161.466L438.519 161.466C433.728 161.728 430.721 162.29 429.222 163.004C427.675 163.74 427.438 164.416 427.438 164.88C427.438 165.62 427.8 166.403 429.279 167.178C430.819 167.984 433.305 168.612 436.889 168.953C444.114 169.641 458.018 169.991 478.671 169.991C506.765 169.991 528.088 173.553 542.446 180.855C549.65 184.518 555.15 189.148 558.845 194.785C560.039 196.608 561.039 198.526 561.844 200.537C561.275 200.63 560.697 200.7 560.11 200.746ZM459.203 69.7589C462.252 65.752 466.084 63.7485 470.701 63.7485C477.321 63.7485 482.156 67.6683 485.205 75.508C488.34 83.2606 489.908 93.278 489.908 105.56C489.908 111.658 489.56 117.189 488.863 122.154C488.166 127.119 487.077 131.605 485.597 135.612C484.203 139.619 482.243 142.755 479.717 145.02C477.191 147.198 474.185 148.286 470.701 148.286C467.217 148.286 464.168 147.198 461.555 145.02C459.029 142.755 457.025 139.619 455.544 135.612C454.064 131.605 452.975 127.119 452.278 122.154C451.668 117.189 451.363 111.658 451.363 105.56C451.363 97.6334 451.929 90.7083 453.062 84.785C454.194 78.7745 456.241 73.7659 459.203 69.7589ZM460.551 70.769C457.774 74.5293 455.812 79.2849 454.717 85.0968L454.716 85.1012C453.609 90.8937 453.047 97.7085 453.047 105.56C453.047 111.598 453.349 117.055 453.948 121.936C454.631 126.795 455.693 131.156 457.124 135.028C458.529 138.831 460.391 141.707 462.657 143.746C464.954 145.651 467.611 146.602 470.701 146.602C473.796 146.602 476.402 145.649 478.605 143.755C480.866 141.723 482.685 138.856 484.006 135.059L484.011 135.044L484.017 135.028C485.449 131.152 486.512 126.786 487.195 121.92C487.879 117.047 488.224 111.595 488.224 105.56C488.224 93.402 486.669 83.6206 483.643 76.1396L483.639 76.1291L483.635 76.1185C482.181 72.3793 480.355 69.7185 478.231 67.9966C476.134 66.2961 473.651 65.4327 470.701 65.4327C466.667 65.4327 463.313 67.1436 460.551 70.769ZM498.14 247.459C489.429 250.943 478.062 252.685 464.037 252.685C450.884 252.685 440.083 250.986 431.633 247.589C423.271 244.192 418.959 240.359 418.698 236.091C418.349 230.777 421.79 226.378 429.02 222.894C436.337 219.497 446.224 217.581 458.68 217.145C464.168 216.971 469.699 217.102 475.274 217.537C480.936 217.973 486.555 218.713 492.13 219.758C497.792 220.891 502.408 222.589 505.98 224.854C509.551 227.206 511.337 229.993 511.337 233.216C511.337 239.227 506.938 243.974 498.14 247.459ZM505.065 226.268C508.327 228.42 509.653 230.742 509.653 233.216C509.653 238.174 506.096 242.496 497.52 245.893L497.515 245.895C489.076 249.27 477.943 251.001 464.037 251.001C451.013 251.001 440.445 249.316 432.264 246.027C428.173 244.365 425.201 242.645 423.247 240.908C421.304 239.181 420.474 237.54 420.379 235.988L420.379 235.981C420.097 231.684 422.774 227.777 429.74 224.417C436.771 221.155 446.402 219.26 458.736 218.828C464.16 218.656 469.629 218.785 475.143 219.216L475.145 219.216C480.743 219.647 486.298 220.379 491.809 221.412C497.326 222.516 501.723 224.152 505.065 226.268Z" fill="black"/>
<path fill-rule="evenodd" clip-rule="evenodd" d="M376.364 194.018C372.182 189.488 370.092 183.434 370.092 175.856V113.269C370.092 90.6212 366.738 74.9418 360.031 66.2311C353.411 57.4332 341.695 53.0342 324.883 53.0342C318.263 53.0342 311.947 54.2102 305.937 56.5621C300.014 58.8269 294.265 62.4419 288.69 67.407C283.115 72.285 278.106 79.0794 273.664 87.7902C269.308 96.4139 265.867 106.605 263.341 118.365H257.2C257.217 117.837 257.251 117.275 257.303 116.681C257.796 110.999 259.896 102.283 263.603 90.5341C266.129 82.1718 267.392 73.9836 267.392 65.9697V57.3461H185.99V63.7485C200.275 63.7485 207.418 72.0673 207.418 88.7048V175.856C207.418 183.434 205.328 189.488 201.146 194.018C196.965 198.548 191.913 200.812 185.99 200.812V207.215H286.599V200.812C280.85 200.812 276.19 198.591 272.618 194.149C269.134 189.706 267.392 183.609 267.392 175.856V172.459C267.392 157.825 268.481 144.236 270.658 131.692C272.836 119.062 275.536 109.001 278.759 101.51C282.069 93.9313 285.336 88.008 288.559 83.7397C291.869 79.3843 294.874 77.0324 297.575 76.684C302.801 76.0742 306.198 78.2519 307.766 83.217C309.421 88.1822 310.249 97.4156 310.249 110.917V175.856C310.249 183.609 308.463 189.706 304.892 194.149C301.32 198.591 296.66 200.812 290.911 200.812V207.215H391.52V200.812C385.597 200.812 380.545 198.548 376.364 194.018ZM289.903 84.7546C286.791 88.876 283.587 94.6663 280.305 102.18C277.156 109.5 274.484 119.416 272.318 131.979L272.318 131.981C270.159 144.416 269.076 157.907 269.076 172.459V175.856C269.076 183.366 270.763 189.049 273.937 193.101C277.185 197.137 281.359 199.128 286.599 199.128H288.283V208.899H184.305V199.128H185.99C191.422 199.128 196.032 197.076 199.909 192.876C203.74 188.725 205.734 183.113 205.734 175.856V88.7048C205.734 80.5882 203.986 74.815 200.783 71.0848C197.623 67.4037 192.8 65.4328 185.99 65.4328H184.305V55.6618H269.076V65.9697C269.076 74.1628 267.785 82.515 265.215 91.0211L265.212 91.031L265.209 91.0408C261.53 102.705 259.49 111.216 258.993 116.681H261.986C264.507 105.37 267.893 95.4802 272.16 87.0309L272.163 87.025C276.672 78.1837 281.799 71.1997 287.576 66.1438C293.273 61.071 299.189 57.34 305.329 54.9914C311.538 52.5624 318.06 51.35 324.883 51.35C341.932 51.35 354.29 55.8088 361.37 65.2093C368.441 74.3978 371.776 90.5799 371.776 113.269V175.856C371.776 183.113 373.77 188.725 377.601 192.876C381.478 197.076 386.088 199.128 391.52 199.128H393.205V208.899H289.227V199.128H290.911C296.155 199.128 300.331 197.134 303.579 193.093C306.836 189.042 308.565 183.362 308.565 175.856V110.917C308.565 97.3983 307.726 88.4229 306.168 83.7497L306.164 83.737L306.16 83.7242C305.46 81.5064 304.414 80.0987 303.133 79.2779C301.853 78.4568 300.121 78.0844 297.781 78.3556C295.809 78.615 293.172 80.454 289.903 84.7546Z" fill="black"/>
<path fill-rule="evenodd" clip-rule="evenodd" d="M96.7479 29.5152C106.765 29.5152 115.694 30.9089 123.534 33.6964C131.46 36.4838 138.342 40.7085 144.178 46.3705C150.014 52.0325 155.023 58.6527 159.204 66.2311C163.472 73.8095 167.392 82.9122 170.964 93.5393H177.366V18.801H1.75702V25.2034C4.8929 25.2034 7.811 25.6389 10.5113 26.51C13.2988 27.294 16.0427 28.6877 18.743 30.6912C21.4434 32.6075 23.5775 35.6127 25.1454 39.7068C26.7134 43.8009 27.4973 48.7224 27.4973 54.4716V171.675C27.4973 180.908 24.797 188.095 19.3963 193.234C14.0828 198.286 8.20299 200.812 1.75702 200.812V207.215H177.366V128.295H170.964C163.908 151.205 154.37 168.321 142.349 179.645C130.415 190.882 114.518 196.501 94.6573 196.501H89.5615V114.053C90.11 114.053 90.6714 114.087 91.2458 114.154C96.1447 114.727 101.986 117.742 108.769 123.2C116.434 129.21 122.88 137.224 128.107 147.241H134.509V70.1509H128.107C122.88 80.1683 116.434 88.2258 108.769 94.3233C101.986 99.703 96.1447 102.675 91.2458 103.24C90.6714 103.306 90.11 103.339 89.5615 103.339V29.5152H96.7479ZM91.2458 31.1995H96.7479C106.611 31.1995 115.343 32.5719 122.969 35.2833L122.975 35.2853C130.68 37.9947 137.35 42.0927 143.005 47.5794C148.714 53.1181 153.624 59.6029 157.729 67.0447L157.733 67.0512L157.737 67.0576C161.94 74.5216 165.82 83.5221 169.367 94.0759L169.753 95.2236H179.05V17.1167H0.0727539V26.8876H1.75702C4.73567 26.8876 7.47758 27.3011 9.99427 28.1129L10.0246 28.1227L10.0553 28.1314C12.6164 28.8516 15.1776 30.1431 17.7395 32.0438L17.7537 32.0544L17.7683 32.0647C20.1224 33.7354 22.0857 36.4267 23.5726 40.3092C25.0479 44.1614 25.8131 48.8677 25.8131 54.4716V171.675C25.8131 180.564 23.2255 187.265 18.2358 192.013C13.1888 196.812 7.71087 199.128 1.75702 199.128H0.0727539V208.899H179.05V126.611H169.72L169.354 127.8C162.348 150.548 152.928 167.365 141.194 178.419C129.636 189.302 114.185 194.816 94.6573 194.816H91.2458V115.851C95.6211 116.424 101.088 119.181 107.713 124.512L107.721 124.518L107.73 124.525C115.179 130.366 121.48 138.181 126.613 148.02L127.086 148.925H136.193V68.4667H127.086L126.613 69.3719C121.479 79.2123 115.175 87.0751 107.72 93.0052C101.097 98.2581 95.6272 100.978 91.2458 101.543V31.1995Z" fill="black"/>
</svg>
